<?xml version="1.0" encoding="utf-8"?>
<!-- Generator: Adobe Illustrator 21.0.0, SVG Export Plug-In . SVG Version: 6.00 Build 0)  -->
<svg version="1.1" xmlns="http://www.w3.org/2000/svg" xmlns:xlink="http://www.w3.org/1999/xlink" x="0px" y="0px"
	 viewBox="0 0 850.4 566.9" style="enable-background:new 0 0 850.4 566.9;" xml:space="preserve">
<g id="Inside_Cut">
	<g id="CIRCLE">
		
			<path style="fill:none;stroke:#000000;stroke-width:0.7087;stroke-linecap:round;stroke-linejoin:round;stroke-miterlimit:10;" d="
			M325.4,343.5c0-17.3,14-31.3,31.3-31.3s31.3,14,31.3,31.3c0,17.3-14,31.3-31.3,31.3S325.4,360.7,325.4,343.5L325.4,343.5z"/>
	</g>
	<g id="CIRCLE_1_">
		
			<path style="fill:none;stroke:#000000;stroke-width:0.7087;stroke-linecap:round;stroke-linejoin:round;stroke-miterlimit:10;" d="
			M394.2,224.2c0-17.3,14-31.3,31.3-31.3s31.3,14,31.3,31.3s-14,31.3-31.3,31.3S394.2,241.5,394.2,224.2L394.2,224.2z"/>
	</g>
	<g id="CIRCLE_2_">
		
			<path style="fill:none;stroke:#000000;stroke-width:0.7087;stroke-linecap:round;stroke-linejoin:round;stroke-miterlimit:10;" d="
			M394.2,303.7c0-17.3,14-31.3,31.3-31.3s31.3,14,31.3,31.3s-14,31.3-31.3,31.3S394.2,321,394.2,303.7L394.2,303.7z"/>
	</g>
	<g id="CIRCLE_3_">
		
			<path style="fill:none;stroke:#000000;stroke-width:0.7087;stroke-linecap:round;stroke-linejoin:round;stroke-miterlimit:10;" d="
			M463.1,343.5c0-17.3,14-31.3,31.3-31.3s31.3,14,31.3,31.3c0,17.3-14,31.3-31.3,31.3S463.1,360.7,463.1,343.5L463.1,343.5z"/>
	</g>
</g>
<g id="Outside_Cut">
	<g id="LWPOLYLINE_1_">
		
			<path style="fill:none;stroke:#000000;stroke-width:0.7087;stroke-linecap:round;stroke-linejoin:round;stroke-miterlimit:10;" d="
			M387.2,234.9c0.1,0.4,0.2,0.7,0.3,1.1c7.8,30.3-10.4,61.2-40.8,69c-21.3,5.5-34.1,27.2-28.6,48.4c5.5,21.3,27.2,34.1,48.4,28.6
			c7-1.8,13.4-5.5,18.5-10.7c0.3-0.3,0.5-0.5,0.8-0.8c22.4-21.9,58.2-21.6,80.2,0.8c15.4,15.7,40.5,15.9,56.2,0.5
			c15.7-15.4,15.9-40.5,0.5-56.2c-5.1-5.2-11.5-8.9-18.5-10.7c-0.4-0.1-0.7-0.2-1.1-0.3c-30.2-8.4-47.8-39.7-39.4-69.8
			c5.9-21.2-6.5-43.1-27.6-49s-43.1,6.5-49,27.6C385.3,220.5,385.3,227.9,387.2,234.9z"/>
	</g>
</g>
<g id="Caps">
	
		<circle style="fill:none;stroke:#000000;stroke-width:0.7087;stroke-linecap:round;stroke-linejoin:round;stroke-miterlimit:10;" cx="513.3" cy="258.8" r="31.2"/>
	
		<circle style="fill:none;stroke:#000000;stroke-width:0.7087;stroke-linecap:round;stroke-linejoin:round;stroke-miterlimit:10;" cx="338.6" cy="258.8" r="31.2"/>
	
		<circle style="fill:none;stroke:#000000;stroke-width:0.7087;stroke-linecap:round;stroke-linejoin:round;stroke-miterlimit:10;" cx="513.3" cy="258.8" r="11.5"/>
	
		<circle style="fill:none;stroke:#000000;stroke-width:0.7087;stroke-linecap:round;stroke-linejoin:round;stroke-miterlimit:10;" cx="338.6" cy="258.8" r="11.5"/>
</g>
<g id="Tabs">
	<rect x="312.5" y="335" width="8.7" height="16.9"/>
	<rect x="461.5" y="215.8" width="8.7" height="16.9"/>
	<rect x="529.8" y="335" width="8.7" height="16.9"/>
</g>
<g id="Backup" style="display:none;">
	<g id="LWPOLYLINE_2_" style="display:inline;">
		
			<path style="fill:none;stroke:#000000;stroke-width:0.7087;stroke-linecap:round;stroke-linejoin:round;stroke-miterlimit:10;" d="
			M387.2,234.9c0.1,0.4,0.2,0.7,0.3,1.1c7.8,30.3-10.4,61.2-40.8,69c-21.3,5.5-34.1,27.2-28.6,48.4c5.5,21.3,27.2,34.1,48.4,28.6
			c7-1.8,13.4-5.5,18.5-10.7c0.3-0.3,0.5-0.5,0.8-0.8c22.4-21.9,58.2-21.6,80.2,0.8c15.4,15.7,40.5,15.9,56.2,0.5
			c15.7-15.4,15.9-40.5,0.5-56.2c-5.1-5.2-11.5-8.9-18.5-10.7c-0.4-0.1-0.7-0.2-1.1-0.3c-30.2-8.4-47.8-39.7-39.4-69.8
			c5.9-21.2-6.5-43.1-27.6-49s-43.1,6.5-49,27.6C385.3,220.5,385.3,227.9,387.2,234.9z"/>
	</g>
	<g id="CIRCLE_7_" style="display:inline;">
		
			<path style="fill:none;stroke:#000000;stroke-width:0.7087;stroke-linecap:round;stroke-linejoin:round;stroke-miterlimit:10;" d="
			M325.4,343.5c0-17.3,14-31.3,31.3-31.3s31.3,14,31.3,31.3c0,17.3-14,31.3-31.3,31.3S325.4,360.7,325.4,343.5L325.4,343.5z"/>
	</g>
	<g id="CIRCLE_6_" style="display:inline;">
		
			<path style="fill:none;stroke:#000000;stroke-width:0.7087;stroke-linecap:round;stroke-linejoin:round;stroke-miterlimit:10;" d="
			M394.2,224.2c0-17.3,14-31.3,31.3-31.3s31.3,14,31.3,31.3s-14,31.3-31.3,31.3S394.2,241.5,394.2,224.2L394.2,224.2z"/>
	</g>
	<g id="CIRCLE_5_" style="display:inline;">
		
			<path style="fill:none;stroke:#000000;stroke-width:0.7087;stroke-linecap:round;stroke-linejoin:round;stroke-miterlimit:10;" d="
			M394.2,303.7c0-17.3,14-31.3,31.3-31.3s31.3,14,31.3,31.3s-14,31.3-31.3,31.3S394.2,321,394.2,303.7L394.2,303.7z"/>
	</g>
	<g id="CIRCLE_4_" style="display:inline;">
		
			<path style="fill:none;stroke:#000000;stroke-width:0.7087;stroke-linecap:round;stroke-linejoin:round;stroke-miterlimit:10;" d="
			M463.1,343.5c0-17.3,14-31.3,31.3-31.3s31.3,14,31.3,31.3c0,17.3-14,31.3-31.3,31.3S463.1,360.7,463.1,343.5L463.1,343.5z"/>
	</g>
</g>
</svg>
